<svg width="249" height="32" viewBox="0 0 249 32" fill="none" xmlns="http://www.w3.org/2000/svg">
<path d="M15.0177 0.0420076C17.3561 0.0420076 19.516 0.423577 21.4974 1.18671C23.4787 1.94985 25.1906 3.02105 26.6328 4.4003C28.0751 5.77954 29.2023 7.43534 30.0144 9.36769C30.8266 11.3 31.2326 13.4354 31.2326 15.7739C31.2326 17.1041 31.0786 18.4133 30.7706 19.7016C30.4625 20.9898 30.0109 22.208 29.4158 23.3562C28.8207 24.5044 28.0891 25.5651 27.2209 26.5383C26.3528 27.5115 25.3621 28.3516 24.2489 29.0588C23.1357 29.7659 21.907 30.319 20.5627 30.7181C19.2185 31.1171 17.7692 31.3167 16.2149 31.3167C13.8765 31.3167 11.7166 30.9421 9.73526 30.193C7.7539 29.4438 6.04209 28.3831 4.59983 27.0109C3.15757 25.6386 2.03037 23.9898 1.21822 22.0645C0.406073 20.1391 0 18.0003 0 15.6478C0 14.3176 0.154028 13.0084 0.462084 11.7201C0.770139 10.4319 1.22172 9.20666 1.81683 8.04445C2.41194 6.88224 3.14007 5.81455 4.00122 4.84138C4.86238 3.8682 5.84956 3.02455 6.96276 2.31042C8.07596 1.59629 9.30818 1.03969 10.6594 0.640616C12.0107 0.241544 13.4634 0.0420076 15.0177 0.0420076ZM16.2149 29.4263C17.7692 29.4263 19.1905 29.1463 20.4787 28.5862C21.7669 28.0261 22.8766 27.2139 23.8078 26.1497C24.739 25.0855 25.4636 23.7868 25.9817 22.2535C26.4998 20.7202 26.7588 18.9804 26.7588 17.0341C26.7588 14.8777 26.5103 12.8788 26.0132 11.0375C25.5161 9.19616 24.7775 7.59987 23.7973 6.24863C22.8171 4.89739 21.5954 3.84019 20.1321 3.07706C18.6689 2.31392 16.9641 1.93235 15.0177 1.93235C13.4634 1.93235 12.0422 2.2089 10.7539 2.762C9.46571 3.3151 8.35601 4.11674 7.42484 5.16693C6.49367 6.21712 5.76904 7.50536 5.25095 9.03163C4.73286 10.5579 4.47381 12.2942 4.47381 14.2406C4.47381 16.383 4.71885 18.3818 5.20894 20.2372C5.69903 22.0925 6.43416 23.6993 7.41434 25.0575C8.39452 26.4158 9.61974 27.4835 11.09 28.2606C12.5603 29.0377 14.2686 29.4263 16.2149 29.4263ZM55.8911 30.9596H55.072L38.3739 14.5346V22.012C38.3739 23.2722 38.3809 24.3714 38.3949 25.3096C38.4089 26.2477 38.4334 27.0564 38.4685 27.7355C38.5035 28.4146 38.5525 28.9852 38.6155 29.4473C38.6785 29.9094 38.759 30.2875 38.857 30.5815V30.6655H35.7065V30.5815C35.8045 30.2875 35.8885 29.9094 35.9585 29.4473C36.0285 28.9852 36.0845 28.4146 36.1265 27.7355C36.1685 27.0564 36.1965 26.2477 36.2105 25.3096C36.2245 24.3714 36.2315 23.2722 36.2315 22.012V16.719C36.2315 15.4588 36.2245 14.3631 36.2105 13.4319C36.1965 12.5008 36.1685 11.6956 36.1265 11.0165C36.0845 10.3374 36.0285 9.76677 35.9585 9.30468C35.8885 8.8426 35.8045 8.46453 35.7065 8.17048V8.08646H37.0087L53.7277 24.5954V16.719C53.7277 15.4588 53.7207 14.3631 53.7067 13.4319C53.6927 12.5008 53.6682 11.6956 53.6332 11.0165C53.5982 10.3374 53.5527 9.76677 53.4967 9.30468C53.4407 8.8426 53.3636 8.46453 53.2656 8.17048V8.08646H56.3952V8.17048C56.2972 8.46453 56.2167 8.8426 56.1537 9.30468C56.0906 9.76677 56.0381 10.3374 55.9961 11.0165C55.9541 11.6956 55.9261 12.5008 55.9121 13.4319C55.8981 14.3631 55.8911 15.4588 55.8911 16.719V30.9596ZM66.162 29.0272C67.4642 29.0272 68.6649 28.9747 69.7641 28.8697C70.8633 28.7647 71.826 28.6492 72.6521 28.5232C73.6183 28.3691 74.4935 28.1941 75.2776 27.9981L74.7945 30.7916C74.5985 30.7776 74.2659 30.7601 73.7968 30.7391C73.3278 30.7181 72.8342 30.7041 72.3161 30.697C71.798 30.69 71.3149 30.683 70.8668 30.676C70.4187 30.669 70.1107 30.6655 69.9426 30.6655H61.8982V30.5815C61.9962 30.2875 62.0837 29.9094 62.1607 29.4473C62.2378 28.9852 62.3008 28.4146 62.3498 27.7355C62.3988 27.0564 62.4373 26.2477 62.4653 25.3096C62.4933 24.3714 62.5073 23.2722 62.5073 22.012V16.719C62.5073 15.4588 62.4933 14.3631 62.4653 13.4319C62.4373 12.5008 62.3988 11.6956 62.3498 11.0165C62.3008 10.3374 62.2378 9.76677 62.1607 9.30468C62.0837 8.8426 61.9962 8.46453 61.8982 8.17048V8.08646H66.7501V8.17048C66.652 8.46453 66.568 8.8426 66.498 9.30468C66.428 9.76677 66.3685 10.3374 66.3195 11.0165C66.2705 11.6956 66.232 12.5008 66.204 13.4319C66.176 14.3631 66.162 15.4588 66.162 16.719V29.0272ZM79.6674 16.719C79.6674 15.4588 79.6534 14.3631 79.6254 13.4319C79.5974 12.5008 79.5589 11.6956 79.5099 11.0165C79.4609 10.3374 79.3979 9.76677 79.3208 9.30468C79.2438 8.8426 79.1563 8.46453 79.0583 8.17048V8.08646H83.9312V8.17048C83.8332 8.46453 83.7456 8.8426 83.6686 9.30468C83.5916 9.76677 83.5286 10.3374 83.4796 11.0165C83.4306 11.6956 83.3921 12.5008 83.3641 13.4319C83.3361 14.3631 83.3221 15.4588 83.3221 16.719V22.012C83.3221 23.2722 83.3361 24.3714 83.3641 25.3096C83.3921 26.2477 83.4306 27.0564 83.4796 27.7355C83.5286 28.4146 83.5916 28.9852 83.6686 29.4473C83.7456 29.9094 83.8332 30.2875 83.9312 30.5815V30.6655H79.0583V30.5815C79.1563 30.2875 79.2438 29.9094 79.3208 29.4473C79.3979 28.9852 79.4609 28.4146 79.5099 27.7355C79.5589 27.0564 79.5974 26.2477 79.6254 25.3096C79.6534 24.3714 79.6674 23.2722 79.6674 22.012V16.719ZM109.955 30.9596H109.136L92.4377 14.5346V22.012C92.4377 23.2722 92.4447 24.3714 92.4587 25.3096C92.4727 26.2477 92.4972 27.0564 92.5322 27.7355C92.5672 28.4146 92.6162 28.9852 92.6793 29.4473C92.7423 29.9094 92.8228 30.2875 92.9208 30.5815V30.6655H89.7702V30.5815C89.8682 30.2875 89.9523 29.9094 90.0223 29.4473C90.0923 28.9852 90.1483 28.4146 90.1903 27.7355C90.2323 27.0564 90.2603 26.2477 90.2743 25.3096C90.2883 24.3714 90.2953 23.2722 90.2953 22.012V16.719C90.2953 15.4588 90.2883 14.3631 90.2743 13.4319C90.2603 12.5008 90.2323 11.6956 90.1903 11.0165C90.1483 10.3374 90.0923 9.76677 90.0223 9.30468C89.9523 8.8426 89.8682 8.46453 89.7702 8.17048V8.08646H91.0725L107.791 24.5954V16.719C107.791 15.4588 107.784 14.3631 107.77 13.4319C107.756 12.5008 107.732 11.6956 107.697 11.0165C107.662 10.3374 107.616 9.76677 107.56 9.30468C107.504 8.8426 107.427 8.46453 107.329 8.17048V8.08646H110.459V8.17048C110.361 8.46453 110.28 8.8426 110.217 9.30468C110.154 9.76677 110.102 10.3374 110.06 11.0165C110.018 11.6956 109.99 12.5008 109.976 13.4319C109.962 14.3631 109.955 15.4588 109.955 16.719V30.9596ZM115.962 8.08646C117.334 8.08646 118.741 8.08296 120.184 8.07596C121.626 8.06896 122.963 8.05496 124.195 8.03395C125.428 8.01295 126.488 7.98844 127.378 7.96044C128.267 7.93243 128.851 7.89043 129.131 7.83442L128.312 10.1028C127.934 10.0048 127.507 9.91379 127.031 9.82978C126.611 9.75976 126.103 9.69325 125.508 9.63024C124.913 9.56723 124.223 9.53572 123.439 9.53572C123.159 9.53572 122.837 9.54623 122.473 9.56723C122.109 9.58823 121.759 9.61274 121.423 9.64074C121.031 9.66875 120.632 9.69675 120.226 9.72476V18.0213C121.36 18.0073 122.382 17.9792 123.292 17.9372C124.202 17.8952 124.98 17.8392 125.624 17.7692C126.38 17.7132 127.045 17.6362 127.619 17.5382L127.115 20.0376C126.345 19.9396 125.568 19.8556 124.784 19.7856C124.111 19.7156 123.369 19.6561 122.557 19.607C121.745 19.558 120.968 19.5335 120.226 19.5335V29.0693C121.528 29.0693 122.725 29.0167 123.817 28.9117C124.91 28.8067 125.862 28.6912 126.674 28.5652C127.626 28.4111 128.487 28.2361 129.257 28.0401L128.774 30.7916C128.564 30.7776 128.225 30.7601 127.756 30.7391C127.287 30.7181 126.796 30.7041 126.285 30.697C125.774 30.69 125.295 30.683 124.847 30.676C124.398 30.669 124.09 30.6655 123.922 30.6655H115.962V30.5815C116.06 30.2875 116.147 29.9094 116.225 29.4473C116.302 28.9852 116.365 28.4146 116.414 27.7355C116.463 27.0564 116.501 26.2477 116.529 25.3096C116.557 24.3714 116.571 23.2722 116.571 22.012V16.719C116.571 15.4588 116.557 14.3631 116.529 13.4319C116.501 12.5008 116.463 11.6956 116.414 11.0165C116.365 10.3374 116.302 9.76677 116.225 9.30468C116.147 8.8426 116.06 8.46453 115.962 8.17048V8.08646ZM159.65 5.33496H159.188C159.076 5.01291 158.897 4.64884 158.652 4.24277C158.407 3.83669 158.085 3.45512 157.686 3.09806C157.287 2.741 156.804 2.44344 156.237 2.2054C155.67 1.96736 155.001 1.84833 154.231 1.84833C153.545 1.84833 152.936 1.95335 152.404 2.16339C151.871 2.37343 151.427 2.66748 151.07 3.04555C150.713 3.42362 150.443 3.8717 150.261 4.38979C150.079 4.90789 149.988 5.48199 149.988 6.1121C149.988 7.12029 150.272 8.08296 150.839 9.00013C151.406 9.91729 152.117 10.824 152.971 11.7201C153.825 12.6163 154.749 13.5124 155.743 14.4086C156.737 15.3048 157.661 16.2359 158.516 17.2021C159.37 18.1683 160.08 19.18 160.648 20.2372C161.215 21.2943 161.498 22.4321 161.498 23.6503C161.498 24.5604 161.341 25.4741 161.026 26.3913C160.711 27.3084 160.224 28.1311 159.566 28.8592C158.908 29.5873 158.061 30.179 157.024 30.634C155.988 31.0891 154.756 31.3167 153.328 31.3167C152.53 31.3167 151.77 31.2431 151.049 31.0961C150.328 30.9491 149.663 30.7671 149.053 30.55C148.444 30.333 147.898 30.0984 147.415 29.8464C146.932 29.5943 146.536 29.3633 146.228 29.1533L146.712 24.5114H147.237C147.391 25.1695 147.643 25.7962 147.993 26.3913C148.343 26.9864 148.773 27.5115 149.284 27.9666C149.796 28.4216 150.38 28.7857 151.038 29.0588C151.696 29.3318 152.418 29.4683 153.202 29.4683C153.916 29.4683 154.556 29.3598 155.124 29.1428C155.691 28.9257 156.177 28.6247 156.583 28.2396C156.989 27.8545 157.301 27.396 157.518 26.8639C157.735 26.3318 157.844 25.7507 157.844 25.1205C157.844 24.2384 157.683 23.4227 157.36 22.6736C157.038 21.9245 156.615 21.2138 156.09 20.5417C155.565 19.8696 154.97 19.2185 154.304 18.5884C153.639 17.9582 152.957 17.3246 152.257 16.6875C151.556 16.0504 150.874 15.3958 150.209 14.7237C149.544 14.0515 148.948 13.3339 148.423 12.5708C147.898 11.8076 147.475 10.9885 147.153 10.1133C146.831 9.23817 146.67 8.2755 146.67 7.22531C146.67 6.11911 146.883 5.12143 147.31 4.23226C147.737 3.3431 148.304 2.58347 149.011 1.95335C149.719 1.32324 150.52 0.840152 151.416 0.504091C152.313 0.16803 153.237 0 154.189 0C154.889 0 155.533 0.0560101 156.121 0.16803C156.709 0.280051 157.238 0.413075 157.707 0.567102C158.176 0.72113 158.586 0.875158 158.936 1.02919C159.286 1.18321 159.573 1.30924 159.797 1.40725L159.65 5.33496ZM172.189 9.64074C170.915 9.64074 169.756 9.69675 168.713 9.80877C167.67 9.92079 166.77 10.0398 166.014 10.1658C165.146 10.3199 164.362 10.4879 163.662 10.6699L164.082 7.96044C164.292 7.98844 164.635 8.00945 165.111 8.02345C165.587 8.03745 166.088 8.04795 166.613 8.05496C167.138 8.06196 167.635 8.06896 168.104 8.07596C168.573 8.08296 168.899 8.08646 169.081 8.08646H179.015C179.183 8.08646 179.495 8.08296 179.95 8.07596C180.405 8.06896 180.892 8.06196 181.41 8.05496C181.928 8.04795 182.425 8.03745 182.901 8.02345C183.377 8.00945 183.72 7.98844 183.93 7.96044L184.35 10.6699C183.678 10.4879 182.908 10.3199 182.04 10.1658C181.298 10.0398 180.405 9.92079 179.362 9.80877C178.319 9.69675 177.146 9.64074 175.844 9.64074V22.012C175.844 23.2722 175.858 24.3714 175.886 25.3096C175.914 26.2477 175.952 27.0564 176.001 27.7355C176.05 28.4146 176.11 28.9852 176.18 29.4473C176.25 29.9094 176.334 30.2875 176.432 30.5815V30.6655H171.58V30.5815C171.678 30.2875 171.762 29.9094 171.832 29.4473C171.902 28.9852 171.965 28.4146 172.021 27.7355C172.077 27.0564 172.119 26.2477 172.147 25.3096C172.175 24.3714 172.189 23.2722 172.189 22.012V9.64074ZM185.905 19.3025C185.905 17.6502 186.216 16.1169 186.839 14.7027C187.462 13.2884 188.313 12.0597 189.391 11.0165C190.469 9.9733 191.744 9.15766 193.214 8.56955C194.684 7.98144 196.259 7.68739 197.94 7.68739C199.592 7.68739 201.15 7.96394 202.613 8.51704C204.076 9.07014 205.351 9.85778 206.436 10.88C207.521 11.9022 208.379 13.1414 209.009 14.5976C209.639 16.0539 209.954 17.6852 209.954 19.4915C209.954 20.9898 209.688 22.4356 209.156 23.8288C208.624 25.2221 207.847 26.4543 206.824 27.5255C205.802 28.5967 204.542 29.4508 203.044 30.0879C201.545 30.7251 199.83 31.0436 197.898 31.0436C196.259 31.0436 194.712 30.7706 193.256 30.2245C191.8 29.6784 190.525 28.8977 189.433 27.8825C188.341 26.8674 187.48 25.6351 186.85 24.1859C186.22 22.7366 185.905 21.1088 185.905 19.3025ZM198.423 29.5523C199.487 29.5523 200.467 29.3423 201.363 28.9222C202.26 28.5022 203.033 27.9 203.684 27.1159C204.335 26.3318 204.84 25.3761 205.197 24.2489C205.554 23.1217 205.732 21.851 205.732 20.4367C205.732 18.8264 205.561 17.3351 205.218 15.9629C204.875 14.5906 204.356 13.4039 203.663 12.4027C202.97 11.4016 202.106 10.6174 201.069 10.0503C200.033 9.48321 198.822 9.19966 197.436 9.19966C196.371 9.19966 195.391 9.4027 194.495 9.80877C193.599 10.2148 192.825 10.803 192.174 11.5731C191.523 12.3432 191.016 13.2884 190.651 14.4086C190.287 15.5288 190.105 16.803 190.105 18.2313C190.105 19.8276 190.284 21.3154 190.641 22.6946C190.998 24.0739 191.523 25.2711 192.216 26.2863C192.909 27.3014 193.774 28.0996 194.81 28.6807C195.846 29.2618 197.051 29.5523 198.423 29.5523ZM218.503 19.7016C218.783 19.7436 219.066 19.7751 219.353 19.7961C219.64 19.8171 219.917 19.8276 220.183 19.8276C221.933 19.8276 223.26 19.3585 224.163 18.4203C225.066 17.4822 225.518 16.0749 225.518 14.1986C225.518 12.6583 225.157 11.4401 224.436 10.5439C223.715 9.64774 222.654 9.19966 221.254 9.19966C220.806 9.19966 220.41 9.21717 220.067 9.25217C219.724 9.28718 219.434 9.32569 219.196 9.36769C218.93 9.4237 218.699 9.47971 218.503 9.53572V19.7016ZM221.716 21.0668C221.436 21.1088 221.159 21.1333 220.886 21.1403C220.613 21.1473 220.337 21.1508 220.057 21.1508C219.833 21.1508 219.588 21.1438 219.322 21.1298C219.056 21.1158 218.783 21.0948 218.503 21.0668V22.096C218.503 23.3422 218.516 24.4309 218.545 25.3621C218.573 26.2933 218.611 27.0949 218.66 27.767C218.709 28.4391 218.769 29.0027 218.839 29.4578C218.909 29.9129 218.993 30.2875 219.091 30.5815V30.6655H214.239V30.5815C214.337 30.2875 214.424 29.9094 214.501 29.4473C214.578 28.9852 214.641 28.4146 214.69 27.7355C214.739 27.0564 214.778 26.2477 214.806 25.3096C214.834 24.3714 214.848 23.2722 214.848 22.012V16.719C214.848 15.4588 214.834 14.3631 214.806 13.4319C214.778 12.5008 214.739 11.6956 214.69 11.0165C214.641 10.3374 214.578 9.76677 214.501 9.30468C214.424 8.8426 214.337 8.46453 214.239 8.17048V8.08646C214.463 8.10046 214.701 8.11447 214.953 8.12847C215.163 8.14247 215.397 8.15297 215.656 8.15998C215.916 8.16698 216.178 8.17048 216.444 8.17048C216.892 8.17048 217.557 8.12847 218.439 8.04445C219.322 7.96044 220.358 7.91843 221.548 7.91843C222.752 7.91843 223.848 8.06546 224.835 8.35951C225.822 8.65356 226.669 9.07364 227.377 9.61974C228.084 10.1658 228.63 10.831 229.015 11.6151C229.4 12.3992 229.592 13.2744 229.592 14.2406C229.592 14.9967 229.487 15.6863 229.277 16.3094C229.067 16.9326 228.773 17.4927 228.395 17.9898C228.017 18.4868 227.569 18.9244 227.051 19.3025C226.533 19.6806 225.959 20.0096 225.329 20.2897L229.719 26.4858C230.097 26.9899 230.478 27.473 230.863 27.935C231.248 28.3971 231.616 28.8102 231.966 29.1743C232.316 29.5383 232.645 29.8429 232.953 30.0879C233.261 30.333 233.52 30.4975 233.73 30.5815V30.6655H228.227C228.227 30.5395 228.14 30.319 227.965 30.0039C227.79 29.6889 227.587 29.3598 227.356 29.0167C227.125 28.6737 226.894 28.3411 226.662 28.0191C226.431 27.697 226.26 27.459 226.148 27.3049L221.716 21.0668ZM235.705 8.08646C237.077 8.08646 238.484 8.08296 239.926 8.07596C241.369 8.06896 242.706 8.05496 243.938 8.03395C245.17 8.01295 246.231 7.98844 247.12 7.96044C248.009 7.93243 248.594 7.89043 248.874 7.83442L248.055 10.1028C247.677 10.0048 247.25 9.91379 246.774 9.82978C246.354 9.75976 245.846 9.69325 245.251 9.63024C244.656 9.56723 243.966 9.53572 243.182 9.53572C242.902 9.53572 242.58 9.54623 242.216 9.56723C241.852 9.58823 241.502 9.61274 241.166 9.64074C240.774 9.66875 240.374 9.69675 239.968 9.72476V18.0213C241.103 18.0073 242.125 17.9792 243.035 17.9372C243.945 17.8952 244.722 17.8392 245.366 17.7692C246.122 17.7132 246.788 17.6362 247.362 17.5382L246.858 20.0376C246.087 19.9396 245.31 19.8556 244.526 19.7856C243.854 19.7156 243.112 19.6561 242.3 19.607C241.488 19.558 240.711 19.5335 239.968 19.5335V29.0693C241.271 29.0693 242.468 29.0167 243.56 28.9117C244.652 28.8067 245.604 28.6912 246.417 28.5652C247.369 28.4111 248.23 28.2361 249 28.0401L248.517 30.7916C248.307 30.7776 247.967 30.7601 247.498 30.7391C247.029 30.7181 246.539 30.7041 246.028 30.697C245.517 30.69 245.037 30.683 244.589 30.676C244.141 30.669 243.833 30.6655 243.665 30.6655H235.705V30.5815C235.803 30.2875 235.89 29.9094 235.967 29.4473C236.044 28.9852 236.107 28.4146 236.156 27.7355C236.205 27.0564 236.244 26.2477 236.272 25.3096C236.3 24.3714 236.314 23.2722 236.314 22.012V16.719C236.314 15.4588 236.3 14.3631 236.272 13.4319C236.244 12.5008 236.205 11.6956 236.156 11.0165C236.107 10.3374 236.044 9.76677 235.967 9.30468C235.89 8.8426 235.803 8.46453 235.705 8.17048V8.08646Z" fill="white"/>
</svg>
